<svg xmlns="http://www.w3.org/2000/svg" version="1.1" xmlns:xlink="http://www.w3.org/1999/xlink" width="200" height="200"><svg xmlns="http://www.w3.org/2000/svg" version="1.1" xmlns:xlink="http://www.w3.org/1999/xlink" viewBox="0 0 200 200"><rect width="200" height="200" fill="url('#gradient')"></rect><defs><linearGradient id="SvgjsLinearGradient1001" gradientTransform="rotate(360 0.5 0.5)"><stop offset="0%" stop-color="#76ba96"></stop><stop offset="100%" stop-color="#33add9"></stop></linearGradient></defs><g><g fill="#fd8e88" transform="matrix(2.05631275368511,0,0,2.05631275368511,3.7932982272557894,115.21905772431847)" stroke="#ee304f" stroke-width="0.2"><path d="M10.03-8.30L10.03-5.66L4.50-5.66L4.50 0L1.07 0L1.07-14.22L10.59-14.22L10.59-11.57L4.50-11.57L4.50-8.30L10.03-8.30ZM15.33-15L15.33 0L12.03 0L12.03-15L15.33-15ZM26.60 0L23.31 0Q23.13-0.32 23.00-0.95L23.00-0.95Q22.09 0.20 20.46 0.20L20.46 0.20Q18.96 0.20 17.92-0.71Q16.88-1.61 16.88-2.98L16.88-2.98Q16.88-4.70 18.14-5.58Q19.41-6.46 21.84-6.46L21.84-6.46L22.85-6.46L22.85-7.01Q22.85-8.47 21.59-8.47L21.59-8.47Q20.42-8.47 20.42-7.31L20.42-7.31L17.13-7.31Q17.13-8.85 18.43-9.80Q19.74-10.76 21.76-10.76Q23.78-10.76 24.95-9.78Q26.12-8.79 26.15-7.07L26.15-7.07L26.15-2.39Q26.17-0.94 26.60-0.17L26.60-0.17L26.60 0ZM21.25-2.15L21.25-2.15Q21.87-2.15 22.27-2.41Q22.68-2.68 22.85-3.01L22.85-3.01L22.85-4.70L21.89-4.70Q20.18-4.70 20.18-3.15L20.18-3.15Q20.18-2.71 20.48-2.43Q20.78-2.15 21.25-2.15ZM33.51-2.97L33.51-2.97Q33.51-3.39 33.07-3.64Q32.63-3.90 31.40-4.17Q30.17-4.44 29.37-4.89Q28.56-5.33 28.14-5.97Q27.72-6.60 27.72-7.42L27.72-7.42Q27.72-8.88 28.93-9.82Q30.13-10.76 32.07-10.76L32.07-10.76Q34.16-10.76 35.43-9.81Q36.70-8.87 36.70-7.32L36.70-7.32L33.40-7.32Q33.40-8.59 32.06-8.59L32.06-8.59Q31.54-8.59 31.19-8.31Q30.84-8.02 30.84-7.59L30.84-7.59Q30.84-7.15 31.27-6.88Q31.70-6.60 32.64-6.43Q33.58-6.25 34.30-6.01L34.30-6.01Q36.68-5.19 36.68-3.07L36.68-3.07Q36.68-1.62 35.40-0.71Q34.11 0.20 32.07 0.20L32.07 0.20Q30.71 0.20 29.65-0.29Q28.58-0.78 27.99-1.62Q27.39-2.46 27.39-3.39L27.39-3.39L30.47-3.39Q30.49-2.66 30.96-2.32Q31.43-1.98 32.16-1.98L32.16-1.98Q32.83-1.98 33.17-2.26Q33.51-2.53 33.51-2.97ZM41.44-15L41.44-9.43Q42.49-10.76 44.13-10.76L44.13-10.76Q45.88-10.76 46.77-9.73Q47.66-8.69 47.68-6.67L47.68-6.67L47.68 0L44.38 0L44.38-6.59Q44.38-7.43 44.03-7.83Q43.69-8.22 42.87-8.22L42.87-8.22Q41.86-8.22 41.44-7.58L41.44-7.58L41.44 0L38.14 0L38.14-15L41.44-15ZM58.96-2.34L58.96-2.34Q59.65-2.34 60.03-2.72Q60.41-3.10 60.40-3.77L60.40-3.77L63.49-3.77Q63.49-2.03 62.24-0.92Q61.00 0.20 59.03 0.20L59.03 0.20Q56.73 0.20 55.40-1.25Q54.07-2.70 54.07-5.25L54.07-5.25L54.07-5.39Q54.07-6.99 54.66-8.22Q55.25-9.44 56.37-10.10Q57.48-10.76 59.00-10.76L59.00-10.76Q61.06-10.76 62.28-9.62Q63.49-8.48 63.49-6.52L63.49-6.52L60.40-6.52Q60.40-7.34 60-7.78Q59.60-8.22 58.93-8.22L58.93-8.22Q57.65-8.22 57.43-6.59L57.43-6.59Q57.36-6.07 57.36-5.17L57.36-5.17Q57.36-3.57 57.74-2.96Q58.13-2.34 58.96-2.34ZM68.10-15L68.10-9.43Q69.15-10.76 70.79-10.76L70.79-10.76Q72.54-10.76 73.43-9.73Q74.32-8.69 74.34-6.67L74.34-6.67L74.34 0L71.04 0L71.04-6.59Q71.04-7.43 70.69-7.83Q70.35-8.22 69.53-8.22L69.53-8.22Q68.52-8.22 68.10-7.58L68.10-7.58L68.10 0L64.80 0L64.80-15L68.10-15ZM85.41 0L82.12 0Q81.94-0.32 81.81-0.95L81.81-0.95Q80.90 0.20 79.27 0.20L79.27 0.20Q77.77 0.20 76.73-0.71Q75.68-1.61 75.68-2.98L75.68-2.98Q75.68-4.70 76.95-5.58Q78.22-6.46 80.64-6.46L80.64-6.46L81.66-6.46L81.66-7.01Q81.66-8.47 80.40-8.47L80.40-8.47Q79.23-8.47 79.23-7.31L79.23-7.31L75.94-7.31Q75.94-8.85 77.24-9.80Q78.54-10.76 80.57-10.76Q82.59-10.76 83.76-9.78Q84.93-8.79 84.96-7.07L84.96-7.07L84.96-2.39Q84.98-0.94 85.41-0.17L85.41-0.17L85.41 0ZM80.06-2.15L80.06-2.15Q80.67-2.15 81.08-2.41Q81.48-2.68 81.66-3.01L81.66-3.01L81.66-4.70L80.70-4.70Q78.98-4.70 78.98-3.15L78.98-3.15Q78.98-2.71 79.29-2.43Q79.59-2.15 80.06-2.15ZM87.32-13.19L90.62-13.19L90.62-10.57L92.35-10.57L92.35-8.28L90.62-8.28L90.62-3.45Q90.62-2.85 90.83-2.62Q91.04-2.38 91.68-2.38L91.68-2.38Q92.17-2.38 92.50-2.44L92.50-2.44L92.50-0.09Q91.61 0.20 90.64 0.20L90.64 0.20Q88.95 0.20 88.13-0.61Q87.32-1.41 87.32-3.04L87.32-3.04L87.32-8.28L85.98-8.28L85.98-10.57L87.32-10.57L87.32-13.19Z"></path></g></g></svg><style>@media (prefers-color-scheme: light) { :root { filter: none; } }
@media (prefers-color-scheme: dark) { :root { filter: none; } }
</style></svg>